<svg width="400" height="510" viewBox="0 0 400 510" fill="none" xmlns="http://www.w3.org/2000/svg">
<path d="M237.872 306.987L207.309 361.416C200.775 373.053 183.924 372.679 177.91 360.764L114.486 235.105C110.76 227.723 118.87 219.99 126.046 224.084L231.593 284.293C239.562 288.839 242.368 298.98 237.872 306.987Z" fill="white"/>
<path d="M302.65 25.725L92.6557 138.134C80.244 144.778 64.8062 139.854 58.5128 127.245L18.0905 46.2583C9.77925 29.6065 21.8667 10.0142 40.4513 10.0142H298.723C307.395 10.0142 310.299 21.6309 302.65 25.725Z" fill="white"/>
<path d="M387.013 33.4609L262.354 258.527C257.849 266.662 247.575 269.538 239.512 264.922L104.395 187.577C93.2187 181.179 93.1926 165.045 104.348 158.611L352.265 15.6286C358.643 11.9502 365.874 10.0142 373.233 10.0142C385.246 10.0142 392.842 22.9384 387.013 33.4609Z" fill="#0047FF"/>
<path d="M47.3666 505.517H29.8083L0 424H14.6183L38.5466 489.653L62.4749 424H77.0932L47.3666 505.517Z" fill="white"/>
<path d="M128.405 509.94C120.94 509.94 114.124 508.01 107.958 504.151C101.846 500.291 96.9504 495.127 93.2722 488.659C89.648 482.136 87.8359 474.933 87.8359 467.052C87.8359 461.072 88.8907 455.5 91.0003 450.336C93.1099 445.118 96.0038 440.552 99.682 436.638C103.414 432.67 107.742 429.572 112.664 427.343C117.586 425.114 122.833 424 128.405 424C134.517 424 140.116 425.25 145.2 427.751C150.339 430.197 154.72 433.621 158.344 438.024C162.023 442.427 164.754 447.537 166.539 453.353C168.378 459.17 169.055 465.394 168.568 472.025H102.36C103.009 476.646 104.523 480.777 106.903 484.419C109.283 488.007 112.312 490.86 115.991 492.98C119.723 495.1 123.861 496.187 128.405 496.242C133.273 496.242 137.681 494.992 141.63 492.491C145.579 489.936 148.77 486.457 151.204 482.054L165.079 485.316C161.833 492.545 156.938 498.47 150.393 503.091C143.848 507.657 136.518 509.94 128.405 509.94ZM101.954 461.262H154.856C154.423 456.696 152.962 452.538 150.474 448.787C147.986 444.982 144.822 441.938 140.981 439.655C137.141 437.372 132.948 436.231 128.405 436.231C123.861 436.231 119.696 437.345 115.91 439.574C112.123 441.802 108.986 444.819 106.498 448.624C104.063 452.375 102.549 456.588 101.954 461.262Z" fill="white"/>
<path d="M179.463 507.412V426.272H193.129V436.414C196.003 432.628 199.609 429.626 203.947 427.408C208.34 425.136 213.112 424 218.264 424C224.283 424 229.787 425.461 234.776 428.382C239.765 431.303 243.697 435.17 246.571 439.985C249.445 435.17 253.35 431.303 258.284 428.382C263.273 425.461 268.75 424 274.716 424C280.844 424 286.402 425.488 291.391 428.463C296.38 431.384 300.339 435.333 303.267 440.309C306.25 445.286 307.741 450.83 307.741 456.943V507.412H294.075V460.189C294.075 456.186 293.099 452.48 291.147 449.072C289.195 445.664 286.565 442.933 283.257 440.877C279.949 438.822 276.288 437.794 272.275 437.794C268.262 437.794 264.602 438.768 261.294 440.715C257.986 442.608 255.356 445.259 253.404 448.667C251.452 452.02 250.475 455.861 250.475 460.189V507.412H236.81V460.189C236.81 455.861 235.834 452.02 233.881 448.667C231.929 445.259 229.272 442.608 225.91 440.715C222.602 438.768 218.941 437.794 214.928 437.794C210.97 437.794 207.309 438.822 203.947 440.877C200.639 442.933 198.009 445.664 196.057 449.072C194.105 452.48 193.129 456.186 193.129 460.189V507.412H179.463Z" fill="white"/>
<path d="M359.558 509.94C352.116 509.94 345.322 508.01 339.175 504.151C333.081 500.291 328.201 495.127 324.534 488.659C320.922 482.136 319.115 474.933 319.115 467.052C319.115 461.072 320.167 455.5 322.27 450.336C324.373 445.118 327.258 440.552 330.924 436.638C334.645 432.67 338.959 429.572 343.866 427.343C348.773 425.114 354.003 424 359.558 424C366.999 424 373.766 425.93 379.86 429.789C386.007 433.649 390.887 438.84 394.5 445.363C398.167 451.886 400 459.115 400 467.052C400 472.977 398.948 478.521 396.845 483.685C394.742 488.849 391.831 493.415 388.11 497.383C384.443 501.297 380.156 504.368 375.249 506.597C370.396 508.826 365.166 509.94 359.558 509.94ZM359.558 496.242C364.626 496.242 369.183 494.91 373.227 492.246C377.325 489.529 380.534 485.968 382.852 481.565C385.225 477.108 386.411 472.27 386.411 467.052C386.411 461.724 385.198 456.832 382.771 452.375C380.399 447.918 377.19 444.357 373.146 441.694C369.102 439.03 364.572 437.698 359.558 437.698C354.489 437.698 349.932 439.057 345.888 441.775C341.844 444.439 338.635 447.999 336.263 452.456C333.89 456.914 332.704 461.779 332.704 467.052C332.704 472.487 333.917 477.434 336.344 481.891C338.77 486.294 342.033 489.8 346.131 492.41C350.229 494.964 354.704 496.242 359.558 496.242Z" fill="white"/>
</svg>
