<svg xmlns="http://www.w3.org/2000/svg" width="173" height="194" viewBox="0 0 173 194">
    <g fill="none" fill-rule="evenodd">
        <g fill-rule="nonzero">
            <g>
                <g transform="translate(-379 -904) translate(379 904) translate(4 4)">
                    <path fill="#184E57" d="M129.603 72.07c-3.688 0-7.246-.556-10.596-1.59v85.635c0 5.527-4.47 10.006-9.984 10.006h-83.12v10.387c0 5.527 4.47 10.006 9.984 10.006h98.906c5.514 0 9.984-4.48 9.984-10.006V68.713c-4.61 2.154-9.752 3.358-15.174 3.358z"/>
                    <path fill="#FAF7F5" d="M106.007 8.206h-95.89c-5.514 0-9.984 4.48-9.984 10.005v137.904c0 5.527 4.47 10.006 9.984 10.006h98.906c5.514 0 9.984-4.48 9.984-10.006V71.238"/>
                    <ellipse cx="129.603" cy="36.036" fill="#DB4F68" rx="35.951" ry="36.036"/>
                    <path fill="#FFB011" d="M25.487 38.144L93.653 38.144 93.653 54.155 25.487 54.155z"/>
                </g>
                <g fill="#000" transform="translate(-379 -904) translate(379 904)">
                    <path d="M133.194 64.478c-2.085 0-3.776-1.695-3.776-3.785V34.809c0-2.09 1.69-3.786 3.776-3.786s3.777 1.695 3.777 3.786v25.884c0 2.09-1.69 3.785-3.777 3.785z"/>
                    <ellipse cx="133.178" cy="22.628" rx="3.777" ry="3.785"/>
                    <path d="M172.85 39.768C172.85 17.84 155.052 0 133.177 0c-9.055 0-17.41 3.056-24.094 8.194H13.878C6.3 8.194.133 14.374.133 21.97V159.67c0 7.596 6.166 13.777 13.745 13.777h11.985v6.586c0 7.596 6.166 13.777 13.745 13.777h98.751c7.58 0 13.746-6.18 13.746-13.777V127.53c0-2.09-1.692-3.785-3.777-3.785-2.086 0-3.777 1.695-3.777 3.785v52.504c0 3.422-2.778 6.206-6.192 6.206H39.608c-3.414 0-6.191-2.784-6.191-6.206v-6.586h79.213c7.58 0 13.746-6.18 13.746-13.777v-80.72c2.21.384 4.483.585 6.802.585 3.951 0 7.77-.582 11.373-1.665v15.436c0 2.09 1.692 3.785 3.777 3.785 2.086 0 3.777-1.695 3.777-3.785V74.71c12.348-6.748 20.744-19.88 20.744-34.943zm-54.028 119.904c0 3.421-2.778 6.205-6.192 6.205H13.878c-3.414 0-6.191-2.783-6.191-6.205V21.97c0-3.422 2.777-6.205 6.191-6.205h87.689c-4.74 6.258-7.677 13.961-8.025 22.323H29.225c-2.086 0-3.777 1.695-3.777 3.786V57.86c0 2.09 1.691 3.785 3.777 3.785h68.059c.858 0 1.65-.287 2.284-.77 4.512 7.193 11.258 12.843 19.254 15.965v82.83zM93.507 45.659v8.416H33V45.66h60.506zm39.67 26.306c-17.709 0-32.116-14.444-32.116-32.197 0-17.754 14.407-32.198 32.117-32.198 17.71 0 32.118 14.444 32.118 32.198 0 17.753-14.408 32.197-32.118 32.197z"/>
                    <path d="M148.327 114.136c-1.556 0-2.983-.998-3.531-2.453-.564-1.494-.102-3.25 1.136-4.26 1.24-1.013 3.027-1.134 4.388-.288 1.358.845 2.053 2.512 1.686 4.075-.398 1.69-1.944 2.926-3.68 2.926z"/>
                    <g>
                        <path d="M71.978 7.81H3.92C1.834 7.81.142 6.116.142 4.025.142 1.935 1.834.24 3.92.24h68.06c2.085 0 3.776 1.695 3.776 3.785s-1.69 3.785-3.777 3.785zM71.978 25.764H3.92c-2.085 0-3.777-1.695-3.777-3.785s1.692-3.785 3.777-3.785h68.06c2.085 0 3.776 1.694 3.776 3.785 0 2.09-1.69 3.785-3.777 3.785zM71.978 43.718H3.92c-2.085 0-3.777-1.695-3.777-3.785s1.692-3.785 3.777-3.785h68.06c2.085 0 3.776 1.695 3.776 3.785s-1.69 3.785-3.777 3.785zM71.978 61.672H3.92c-2.085 0-3.777-1.695-3.777-3.785s1.692-3.785 3.777-3.785h68.06c2.085 0 3.776 1.694 3.776 3.785 0 2.09-1.69 3.785-3.777 3.785z" transform="translate(25.305 74.572)"/>
                    </g>
                </g>
            </g>
        </g>
    </g>
</svg>
