<svg xmlns="http://www.w3.org/2000/svg" width="513" height="554" viewBox="0 0 513 554">
    <g fill="none" fill-rule="evenodd">
        <g fill-rule="nonzero">
            <g>
                <path fill="#352E2F" d="M398.73 114.972l200.436 200.212V165.025h66.812v317.003L465.542 281.816v150.159h-66.813V114.972zm-22.152 49.989v267.078H109.329V164.961h267.249zm-66.812 66.77H176.14V365.27h133.625V231.73z" transform="translate(0 -464) matrix(1 0 0 -1 -183 1061) rotate(30 387.654 298.5)"/>
                <path fill="#523B27" d="M344.422 114.972L544.86 315.184V165.025h66.812v317.003L411.234 281.816v150.159h-66.812V114.972zm-22.151 49.989v267.078H55.02V164.961h267.25zm-66.813 66.77H121.834V365.27h133.624V231.73z" opacity=".5" transform="translate(0 -464) matrix(1 0 0 -1 -183 1061) rotate(30 333.346 298.5)"/>
            </g>
        </g>
    </g>
</svg>
