<svg xmlns="http://www.w3.org/2000/svg" width="284" height="256" viewBox="0 0 284 256">
    <g fill="none" fill-rule="evenodd">
        <g fill-rule="nonzero">
            <g>
                <path fill="#32364F" d="M254.787 206.405c0-56.357 29.213-95.059 29.213-122.215C284 57.034 268.378 0 143.366 0 18.353 0 0 76.727 0 106.596c0 139.872 254.787 199.619 254.787 99.81z" transform="translate(-924 -1705) translate(924 1705)"/>
                <path fill="#A4AFC1" d="M217.745 9.685L225.888 9.685 225.886 25.971 217.743 25.971z" transform="translate(-924 -1705) translate(924 1705) rotate(-45 221.816 17.828)"/>
                <path fill="#A4AFC1" d="M250.85 42.804L258.993 42.803 258.992 59.089 250.849 59.09z" transform="translate(-924 -1705) translate(924 1705) rotate(-45 254.921 50.946)"/>
                <path fill="#A4AFC1" d="M245.347 13.761L261.633 13.759 261.632 21.903 245.346 21.904z" transform="translate(-924 -1705) translate(924 1705) rotate(-45 253.49 17.832)"/>
                <path fill="#A4AFC1" d="M36 115c-6.616 0-12-5.384-12-12s5.384-12 12-12 12 5.384 12 12-5.384 12-12 12zm0-16c-2.208 0-4 1.792-4 4s1.792 4 4 4 4-1.792 4-4-1.792-4-4-4z" transform="translate(-924 -1705) translate(924 1705)"/>
                <path fill="#2FDF84" d="M121.479 90L195 221 50 221zM172 179.009L190.734 142 233 219 194.759 219z" transform="translate(-924 -1705) translate(924 1705)"/>
                <path fill="#CE7200" d="M122 37L169 37 156.739 51 169 65 122 65z" transform="translate(-924 -1705) translate(924 1705)"/>
                <path fill="#FF9008" d="M122 37L140 37 140 65 122 65z" transform="translate(-924 -1705) translate(924 1705)"/>
                <path fill="#00B871" d="M122.232 90L51 221 68.299 221 131 105.679zM199.722 158.211L190.796 142 172 179.009 194.835 219 212 219 189.165 179.009z" transform="translate(-924 -1705) translate(924 1705)"/>
                <path fill="#000" d="M193.914 226H50.077c-2.148 0-4.133-1.136-5.227-2.986-1.094-1.85-1.135-4.138-.106-6.02l23.266-42.6 10.664 5.842-18.346 33.593h123.197l-62.462-111.197-34.626 63.404-10.664-5.842 39.885-73.028c1.062-1.939 3.088-3.156 5.3-3.164 2.018-.057 4.246 1.176 5.332 3.1l72.932 129.826c1.053 1.883 1.037 4.187-.049 6.054-1.102 1.866-3.095 3.018-5.259 3.018z" transform="translate(-924 -1705) translate(924 1705)"/>
                <path fill="#000" d="M233.833 226h-39.074v-12.273h28.619l-32.51-58.508-13.878 27.066-10.99-5.58 19.15-37.359c1.037-2.02 3.11-3.305 5.389-3.346 2.525.025 4.409 1.186 5.503 3.166l43.187 77.728c1.053 1.898 1.029 4.213-.082 6.087-1.11 1.874-3.126 3.019-5.314 3.019zM127.413 90H115V36.207c0-3.426 2.78-6.207 6.206-6.207h47.583c2.425 0 4.626 1.407 5.636 3.617 1.017 2.2.653 4.791-.927 6.637l-8.946 10.436 8.954 10.444c1.58 1.845 1.936 4.436.927 6.637-1.018 2.201-3.22 3.608-5.644 3.608h-41.376V90zm0-31.034h27.88l-3.625-4.238c-1.995-2.325-1.995-5.751 0-8.085l3.624-4.23h-27.88v16.553zM133.61 152c-1.55 0-3.107-.592-4.278-1.76l-7.828-7.76-7.828 7.76c-2.204 2.192-5.73 2.352-8.135.384L94 141.184l7.707-9.258 7.296 5.977 8.216-8.145c2.364-2.344 6.198-2.344 8.562 0l8.216 8.145 7.296-5.977 7.707 9.257-11.54 9.44c-1.123.921-2.486 1.377-3.85 1.377z" transform="translate(-924 -1705) translate(924 1705)"/>
                <path fill="#000" d="M12 213L273 213 273 226 12 226z" transform="translate(-924 -1705) translate(924 1705)"/>
            </g>
        </g>
    </g>
</svg>
