<svg xmlns="http://www.w3.org/2000/svg" width="116" height="110" viewBox="0 0 116 110">
    <g fill="none" fill-rule="evenodd">
        <g>
            <g>
                <g>
                    <g stroke="#FFA102" stroke-linecap="round" stroke-linejoin="round" stroke-width="8">
                        <path d="M98.612 38.19c-4.64 2.678-7.216 7.707-7.168 13.062v.613c-.048 5.355 2.528 10.384 7.168 13.061l.043.027c3.152 1.819 7.253.021 7.92-3.557 1.221-6.571 1.163-13.243-.059-19.68-.677-3.568-4.762-5.34-7.904-3.526h0zM36.223 18.809c-.485.267-.965.544-1.44.832-4.432 2.699-10.005 2.65-14.501.053h0c-3.126-1.802-3.675-6.208-.944-8.565 4.986-4.31 10.773-7.717 17.12-9.947 3.413-1.2 6.976 1.478 6.976 5.094v.042c0 5.158-2.694 10.01-7.21 12.49h0zM72.036 84.28c.475-.26.944-.532 1.408-.815 4.432-2.699 10.006-2.65 14.502-.053h0c3.125 1.802 3.674 6.208.944 8.565-4.987 4.31-10.774 7.717-17.12 9.952-3.414 1.205-6.982-1.472-6.982-5.093h0c0-5.18 2.71-10.054 7.248-12.555h0zM9.61 64.92h0c-3.142 1.814-7.227.044-7.904-3.52-1.222-6.436-1.28-13.114-.059-19.684.667-3.58 4.763-5.376 7.915-3.558l.048.027c4.64 2.677 7.216 7.707 7.168 13.061v.614c.048 5.354-2.528 10.384-7.168 13.06h0zM64.788 6.324h0c0-3.627 3.58-6.278 6.998-5.083 6.186 2.16 12 5.445 17.082 9.797 2.763 2.368 2.272 6.81-.88 8.63l-.048.026c-4.496 2.592-10.064 2.646-14.496-.053-.474-.288-.954-.57-1.445-.837-4.517-2.475-7.21-7.328-7.21-12.48h0zM43.434 96.788h0c0 3.626-3.579 6.277-6.998 5.082-6.186-2.16-12-5.445-17.082-9.797-2.763-2.368-2.272-6.81.88-8.63h0c4.522-2.613 10.128-2.655 14.597.054.459.277.923.55 1.397.805 4.512 2.48 7.206 7.334 7.206 12.486h0z" transform="translate(-970 -2857) translate(924 2808) translate(40 40) translate(9.889 12.444)"/>
                        <path d="M42.797 40.244L65.426 40.244 65.426 62.873 42.797 62.873z" transform="translate(-970 -2857) translate(924 2808) translate(40 40) translate(9.889 12.444) rotate(45 54.111 51.558)"/>
                    </g>
                    <path d="M0 0L128 0 128 128 0 128z" transform="translate(-970 -2857) translate(924 2808) translate(40 40)"/>
                </g>
            </g>
        </g>
    </g>
</svg>
