<svg xmlns="http://www.w3.org/2000/svg" width="116" height="92" viewBox="0 0 116 92">
    <g fill="none" fill-rule="evenodd">
        <g>
            <g>
                <g>
                    <g stroke="#FFA102" stroke-linecap="round" stroke-linejoin="round" stroke-width="8.889">
                        <path d="M62.762 36.238c5.207 5.207 5.207 13.65 0 18.857-5.207 5.207-13.65 5.207-18.857 0-5.207-5.207-5.207-13.65 0-18.857 5.207-5.207 13.65-5.207 18.857 0M92.02 4.239c5.207 5.207 5.207 13.649 0 18.856-5.207 5.207-13.649 5.207-18.856 0-5.207-5.207-5.207-13.65 0-18.856 5.207-5.207 13.65-5.207 18.856 0M85.333 43c8.176 0 16 2.843 21.334 7.11M33.503 4.239c5.207 5.207 5.207 13.649 0 18.856-5.207 5.207-13.65 5.207-18.856 0-5.207-5.207-5.207-13.65 0-18.856 5.207-5.207 13.649-5.207 18.856 0M0 50.11C5.333 45.842 13.157 43 21.333 43M77.819 83c-6.214-4.805-15.142-8-24.486-8-9.344 0-18.272 3.195-24.485 8" transform="translate(-428 -3370) translate(382 3312) translate(40 40) translate(10.667 22.333)"/>
                    </g>
                    <path d="M0 0L128 0 128 128 0 128z" transform="translate(-428 -3370) translate(382 3312) translate(40 40)"/>
                </g>
            </g>
        </g>
    </g>
</svg>
